<?xml version="1.0" encoding="UTF-8"?>
<!DOCTYPE svg PUBLIC "-//W3C//DTD SVG 1.1//EN" "http://www.w3.org/Graphics/SVG/1.1/DTD/svg11.dtd">
<svg xmlns="http://www.w3.org/2000/svg" version="1.1" width="24px" height="25px" style="shape-rendering:geometricPrecision; text-rendering:geometricPrecision; image-rendering:optimizeQuality; fill-rule:evenodd; clip-rule:evenodd" xmlns:xlink="http://www.w3.org/1999/xlink">
<g><path style="opacity:0.925" fill="#ef1359" d="M 7.5,-0.5 C 9.83333,-0.5 12.1667,-0.5 14.5,-0.5C 18.7425,0.741084 21.7425,3.40775 23.5,7.5C 23.5,10.5 23.5,13.5 23.5,16.5C 21.8333,20.1667 19.1667,22.8333 15.5,24.5C 14.5,24.5 13.5,24.5 12.5,24.5C 12.5,21.5 12.5,18.5 12.5,15.5C 14.3588,15.5391 15.6921,14.7058 16.5,13C 15.2068,12.51 13.8734,12.3433 12.5,12.5C 12.3286,9.51228 13.6619,7.51228 16.5,6.5C 11.0738,4.64041 9.07375,6.64041 10.5,12.5C 9.5,12.5 8.5,12.5 7.5,12.5C 7.5,13.5 7.5,14.5 7.5,15.5C 8.5,15.5 9.5,15.5 10.5,15.5C 10.5,18.5 10.5,21.5 10.5,24.5C 9.5,24.5 8.5,24.5 7.5,24.5C 4.21573,22.883 1.54906,20.5497 -0.5,17.5C -0.5,14.1667 -0.5,10.8333 -0.5,7.5C 1.16667,3.83333 3.83333,1.16667 7.5,-0.5 Z"/></g>
</svg>
